# xmcd
#
# Track frame offsets: 
#        150
#        15153
#        32555
#        49343
#        60778
#        81400
#        94485
#        107228
#        122030
#        129928
#        146103
#        165150
#        184725
#
# Disc length: 2638 seconds
#
# Revision: 0
# Processed by: cddbd v1.5.2PL0 Copyright (c) Steve Scherf et al.
# Submitted via: ExactAudioCopy v0.95b4
#
DISCID=a30a4c0d
DTITLE=Boogie Bill Web - Drinkin' And Stinkin'
DYEAR=1900
DGENRE=Blues
TTITLE0=Drinkin' And Stinkin'
TTITLE1=Bill's Boogie Woogie
TTITLE2=Cuttin' Out Baby
TTITLE3=Love Me Cause I Love My Baby So
TTITLE4=Red Cross Store
TTITLE5=You Can't Tell My Business After Dark
TTITLE6=Black Nights
TTITLE7=Come For A Ride
TTITLE8=Paul Jones And Little Virginia Dare
TTITLE9=Rocky Mountain Blues
TTITLE10=Canned Heat
TTITLE11=44 Blues
TTITLE12=Soul Serenade
EXTD=
EXTT0=
EXTT1=
EXTT2=
EXTT3=
EXTT4=
EXTT5=
EXTT6=
EXTT7=
EXTT8=
EXTT9=
EXTT10=
EXTT11=
EXTT12=
PLAYORDER=
